<?xml version="1.0" encoding="UTF-8"?>
<svg id="Layer_1" data-name="Layer 1" xmlns="http://www.w3.org/2000/svg" viewBox="0 0 678.32 283.58">
  <defs>
    <style>
      .cls-1, .cls-2 {
        fill: #006837;
      }

      .cls-2 {
        font-family: Gazpacho-Black, Gazpacho;
        font-size: 120px;
        font-weight: 800;
        stroke: #006837;
        stroke-miterlimit: 10;
      }

      .cls-3 {
        letter-spacing: 0em;
      }

      .cls-4 {
        letter-spacing: 0em;
      }

      .cls-5 {
        letter-spacing: 0em;
      }
    </style>
  </defs>
  <text class="cls-2" transform="translate(267.67 243.06)"><tspan class="cls-4" x="0" y="0">S</tspan><tspan class="cls-3" x="79.32" y="0">t</tspan><tspan class="cls-5" x="121.56" y="0">ump</tspan></text>
  <g>
    <path class="cls-1" d="M159.49,267.86c-6.27,.36-12.17,2.44-18.32,3.47-.11,.02-1.51,.2-.46,.08s-.35,.03-.46,.04c-.7,.07-1.39,.11-2.09,.12s-1.39,0-2.08-.06c-.27-.02-.57-.09-.83-.08,1.59-.04,.25,.01-.26-.11-.62-.14-1.22-.35-1.84-.53-1.36-.4,1.14,.6-.11-.05-.25-.13-.51-.24-.76-.37-1.73-.86-3.44-1.75-5.27-2.38-3.11-1.07-6.53-1.23-9.79-1.28-1.48-.02-2.95-.01-4.43-.08-.68-.03-1.56,.03-2.2-.18,1.15,.38,.76,.12,.36,.03-.42-.09-.83-.16-1.25-.26-.59-.14-1.17-.31-1.75-.51-.29-.1-.57-.21-.86-.31-.96-.34,.36,.11,.42,.18-.27-.34-1.22-.58-1.63-.81-.64-.35-1.26-.74-1.86-1.15-.04-.03-.49-.42-.59-.42l.63,.5c-.19-.15-.38-.3-.57-.46-.46-.39-.91-.8-1.35-1.23-.39-.39-.76-.79-1.12-1.2-.16-.19-.37-.58-.58-.7,.56,.74,.65,.85,.28,.34l-.21-.3c-.69-1-1.28-2.06-1.8-3.16s.39,1.09,.1,.23c-.11-.33-.24-.64-.35-.97-.28-.78-.54-1.56-.84-2.33-.72-1.83-1.46-3.35-2.65-4.9s-2.76-2.82-4.41-4.02c-5.37-3.89-11.43-7.39-18.15-8.02-3.58-.33-7.03,.58-10.23,2.15-1.2,.59-2.33,1.32-3.47,2.02-.57,.35-1.14,.71-1.73,1.04-.23,.13-.47,.26-.7,.39-.24,.12-.47,.24-.71,.36-.48,.22-.48,.22-.02,.02,.96-.17-.27,.07-.43,.12-.27,.08-.53,.16-.8,.22-.15,.04-1.11,.34-1.22,.25,.1,.08,1.29-.11,.35-.06-1.55,.1-3.09,.13-4.65,.08-3.24-.09-6.37-.14-9.58,.44-1.99,.36-3.89,1.17-5.67,2.1-.59,.31-1.17,.65-1.77,.97-.11,.06-.97,.6-1.07,.54,.77-.31,.94-.38,.51-.23-.19,.07-.38,.13-.57,.19-.29,.08-1.3,.04-.44,.13,.52-.07,.5-.08-.05-.04-.28,0-.57,0-.85-.01-.22-.01-.68-.12-.86-.07,.88,.13,.98,.14,.31,.03-.22-.04-.43-.07-.65-.11-2.02-.36-4.07-.81-6.12-.85-3.76-.07-7.13,1.42-10.42,3.07-.55,.27-1.09,.55-1.64,.82-.3,.15-.71,.26-.98,.45,1.08-.75,.74-.3,.12-.09-.27,.09-.55,.18-.82,.25-.64,.17-1.55,.01,.1,.07-.22,0-.45,.03-.67,.04-.23,0-.45,0-.68-.03,1.02,.16,1.21,.17,.57,.04l4.4,5.79c0-.85,.12-1.68,.15-2.52-.08,1.85-.03,.31,.07-.18s.2-.94,.33-1.4c.22-.81,.49-1.6,.78-2.4,.34-.94-.13,.34-.2,.43,.12-.16,.22-.49,.3-.66,.2-.44,.42-.87,.65-1.29,.4-.74,.84-1.46,1.31-2.16,.25-.37,1.3-1.55,.13-.24,.32-.36,.61-.75,.93-1.11,.56-.63,1.15-1.23,1.77-1.8,.35-.33,.72-.64,1.09-.95,.14-.12,.65-.52-.04,.02-.78,.61,.08-.05,.26-.17,.69-.48,1.4-.93,2.14-1.33,.42-.23,.85-.45,1.28-.66,.16-.08,.33-.15,.49-.22,.67-.32-1.28,.48-.27,.13,2.23-.78,4.52-1.32,6.64-2.39,2.5-1.26,4.2-3.4,5.65-5.72,.24-.39,.51-.76,.74-1.15,.33-.54-.31,.43-.34,.44,.06-.02,.45-.46,.53-.56,.29-.34,.8-.4-.33,.2,.16-.09,.32-.23,.47-.33,.48-.33,.99-.62,1.49-.91,3.42-1.94,6.65-4.11,9.15-7.2,2.66-3.29,4.57-6.85,5.99-10.84,2.59-7.33,2.93-15.33,2.38-23.01-.38-5.32-1.02-10.63-1.29-15.96-.14-2.68-.19-5.37-.05-8.05,.03-.63,.07-1.25,.12-1.88,.03-.33-.06-1.63,.19-1.87-.25,.24-.16,1.04-.03,.2,.06-.39,.12-.78,.19-1.16,.12-.7,.27-1.39,.42-2.08,.68-3.06-.93-6.64-4.19-7.38-3.04-.69-6.65,.91-7.38,4.19-2.2,9.86-1.21,19.77-.33,29.71,.37,4.15,.72,8.31,.55,12.47-.03,.83-.08,1.66-.16,2.49-.04,.42-.08,.83-.12,1.25-.02,.22-.08,.48-.08,.71,.02-1.62,.11-.83,.04-.36-.26,1.75-.62,3.49-1.1,5.2-.24,.84-.5,1.67-.8,2.5-.14,.38-.29,.75-.43,1.13-.23,.61,.3-.69,.27-.64-.13,.25-.23,.52-.35,.78-.72,1.54-1.56,3.01-2.56,4.38-.83,1.15,.82-.98-.09,.11-.25,.3-.51,.59-.78,.88-.61,.66-1.28,1.26-1.95,1.85-.77,.67,1.16-.83,0,0-.33,.23-.66,.46-1,.67-.87,.55-1.78,1.02-2.67,1.53-2.4,1.36-4.41,3.05-6.02,5.3-.53,.74-1.02,1.52-1.49,2.3s.15-.38,.24-.28c0,0-.54,.63-.54,.56s.99-.62,.43-.33c-.05,.03-.82,.53-.85,.49-.02-.02,1.44-.52,.33-.14-.19,.07-.38,.13-.57,.2-.45,.15-.9,.28-1.35,.42-.97,.29-1.92,.59-2.85,.97-2.05,.84-4.02,1.76-5.84,3.03C5.37,238,.11,247.13,0,257.11c-.03,2.51,1.87,5.23,4.4,5.79,3.8,.84,7.15,.04,10.63-1.5,1.11-.49,2.19-1.06,3.28-1.6,.49-.24,.99-.47,1.49-.71,.76-.35-1.45,.5-.26,.12,.34-.11,.68-.24,1.02-.34,.21-.06,.88-.11,1.04-.25-.13,.12-1.63,.07-.46,.08,.58,0,1.6,.22,2.16,.08l-.73-.1c.22,.03,.43,.07,.65,.11,.36,.06,.72,.13,1.08,.2,1.24,.23,2.49,.43,3.75,.58,3.67,.43,6.96-.54,10.16-2.28,.59-.32,1.17-.66,1.77-.96,.17-.09,1.29-.43,.39-.2-.97,.24,.33-.09,.45-.12,.27-.08,1.78-.62,2.01-.45-.12-.09-1.28,.11-.36,.07,.56-.03,1.11-.08,1.67-.09,2.83-.07,5.65,.23,8.48,.07,3.75-.22,7.15-1.15,10.42-3,1.11-.63,2.18-1.33,3.27-1.99,.52-.31,1.04-.61,1.57-.89,.2-.1,.86-.56,1.08-.52-.76,.31-.93,.39-.51,.24,.19-.07,.38-.13,.57-.19,.34-.1,.7-.15,1.04-.26,.83-.26-1.5,.05-.14,0,.7-.02,1.38-.02,2.08,0,1.22,.03-.37-.06-.35-.07,.15-.1,1.06,.21,1.24,.25,.76,.18,1.51,.41,2.25,.68,.35,.13,1.34,.4-.02-.04,.34,.11,.68,.3,1,.46,.6,.29,1.19,.59,1.78,.91,1.43,.78,2.81,1.65,4.17,2.55,.59,.39,1.18,.79,1.77,1.19,.23,.16,.45,.32,.68,.48,1.17,.8-.95-.88,.09,.08,.2,.19,.41,.36,.61,.55l.29,.29c.43,.49,.37,.4-.15-.27,.1,.04,.43,.65,.45,.69,.09,.15,.88,1.64,.42,.75s.1,.31,.15,.43c.09,.26,.18,.52,.28,.78,.23,.65,.45,1.3,.7,1.94,.63,1.61,1.33,3.21,2.24,4.69,3.31,5.34,8.21,9.23,14,11.54,2.79,1.12,5.78,1.58,8.77,1.76,1.47,.09,2.95,.09,4.43,.1,.74,0,1.47,.02,2.21,.05s1.94-.09,2.62,.19c-1.03-.42-.79-.13-.31-.03s.99,.2,1.48,.33c.35,.09,.69,.22,1.04,.32,1.3,.35-.94-.5,.14,.04,1.85,.91,3.67,1.88,5.61,2.61,3.34,1.26,7.15,1.56,10.69,1.23s7.13-1.12,10.65-1.97c1.6-.39,3.2-.78,4.82-1.11,.62-.12,1.89-.59,2.49-.44-.08-.02-1.49,.15-.36,.06,.55-.05,1.09-.1,1.64-.13,3.13-.18,6.15-2.63,6-6-.14-3.1-2.64-6.19-6-6h0Z"/>
    <path class="cls-1" d="M165.28,272.26c-1.36-3.42-3.16-6.48-5.79-9.09s-5.72-4.39-9.12-5.81l4.19,7.38c.04-.12-.6,1.33-.31,.78,.33-.62-.95,1.03-.44,.57,.41-.38-.77,.52-.7,.51,.11-.03,.24-.16,.35-.21,.54-.24-.89,.32-.79,.32,.14,0,.41-.13,.56-.17,.14-.04,.3-.05,.44-.1,.55-.19-1.27,.02-.67,.09,.67,.08,1.4-.05,2.09,0,.29,.02,1.59,.17,.47,.03s.47,.09,.76,.14c4.72,.75,9.47,1.28,14.24,1.48,9.02,.38,18.01-.44,26.88-2.07,.54-.1,1.07-.2,1.61-.29,.23-.04,.46-.07,.69-.11,.72-.14-.44,.05-.44,.05,.23-.2,1.3-.13,1.62-.15,.62-.04,1.24-.05,1.86-.02,.47,.02,.93,.07,1.4,.11,.73,.06-.44-.05-.44-.06,.04-.04,.79,.13,.92,.16,1.08,.19,2.15,.43,3.23,.63,4.96,.92,9.73,.99,14.71,.15,2.16-.37,4.53-.87,6.38-2.08,1.67-1.08,2.89-2.59,3.53-4.48,.57-1.7,.37-3.28,.13-5-.15-1.04,.05,.35,.06,.46,0-.34,.12-.63-.09,.05-.14,.45-.2,.89-.46,1.31-.03,.04-1.05,1.16-.4,.54,.07-.06-1.14,.85-.6,.52,.47-.29-.72,.3-.73,.3,.09,.02,.36-.1,.46-.13,.7-.16-1.5,.02-.49,.06,2.33,.11,4.44,.53,6.78,.07,5.24-1.03,8.78-6.63,8.44-11.79-.3-4.53-2.51-8.46-5.16-12.03-2.25-3.02-4.71-5.85-7.09-8.76-.24-.29-.47-.58-.7-.87-.15-.19-.3-.4-.46-.58-.02-.03,.76,1.01,.37,.48-.51-.69-1.02-1.37-1.5-2.08-.92-1.35-1.71-2.75-2.43-4.21-.46-.94,.5,1.31-.02-.05-.13-.33-.25-.67-.36-1.01-.26-.8-.47-1.63-.62-2.46-.28-1.52,.06,.82-.05-.33-.04-.44-.09-.88-.13-1.32-.14-1.4-.29-2.82-.57-4.2-.47-2.32-1.56-4.47-2.9-6.41-.83-1.2-1.66-2.38-2.28-3.71-.11-.24-.5-1.14-.05-.09s.02,.01-.07-.24c-.21-.58-.39-1.17-.56-1.77-.34-1.21-.59-2.45-.79-3.69-.02-.14-.04-.29-.07-.43-.15-.94,.1,.73,.1,.73-.08-.27-.07-.6-.1-.88-.07-.7-.13-1.39-.18-2.09-.1-1.43-.14-2.86-.14-4.3-.02-5.38,.48-10.75,1.1-16.09,.39-3.37,1.16-6.92,.97-10.33-.08-1.48-.31-2.5-.99-3.81-1.44-2.8-5.59-3.84-8.21-2.15-2.85,1.84-3.69,5.22-2.15,8.21,.23,.45-.69-1.76-.53-1.23,.08,.27,.13,.86-.05-.52s-.07-.47-.06-.09c.01,.62-.03,1.23-.08,1.85-.15,1.85-.38,3.69-.6,5.53-.61,5.11-1.17,10.22-1.34,15.36-.19,5.72,.03,11.7,1.59,17.24,.79,2.8,2.01,5.46,3.66,7.85,.52,.75,1.05,1.49,1.5,2.28,.1,.18,.2,.37,.3,.55,.58,1.02-.16-.2-.1-.27-.05,.05,.38,1.31,.41,1.47,.05,.21,.08,.43,.12,.64,.22,1.12-.08-.16-.03-.29-.1,.3,.1,.99,.14,1.32,.14,1.41,.29,2.82,.53,4.22,1.27,7.36,6.35,13.3,10.99,18.84,1.04,1.24,2.04,2.53,3.09,3.77-1.09-1.29-.16-.21,.08,.12,.22,.3,.44,.6,.65,.9,.5,.7,.97,1.42,1.42,2.16,.25,.41,.49,.83,.72,1.25,.1,.18,.18,.39,.29,.56,.36,.59-.19-.49-.18-.47,.27,.31,.36,.98,.46,1.38,.03,.11,.06,.53,.14,.61-.2-.19-.04-1.27-.07-.36,0,.17-.06,.63,0,.77-.02-.04,.28-1.28,.09-.72-.08,.22-.45,1.39-.08,.47,.33-.82,.1-.25,0-.08-.52,.84,.23-.31,.33-.36-.1,.05-.29,.28-.36,.37-.43,.53,.96-.68,.39-.33-.54,.33,.68-.27,.64-.25-.86,.31,.07-.29,.33,0-.09-.1-1.12-.03-1.3-.04-.98-.09-1.95-.3-2.94-.31-2.66-.03-5.35,.88-7.33,2.68-2.55,2.32-2.88,5.44-2.42,8.65,.15,1.08,.07-1.16-.03-.1,.07-.77,.23-1.04,.66-1.75l.52-.87c.75-.51,.93-.65,.53-.42-.56,.29,.65-.24,.62-.24-.15,0-.37,.12-.51,.16-.57,.17-1.16,.31-1.74,.44-.45,.1-.91,.19-1.36,.27-.05,0-.68,.13-.68,.11,0-.01,1.52-.16,.22-.03-1.08,.11-2.15,.18-3.23,.19-.92,0-1.85-.02-2.77-.1-.19-.01-1.9-.19-1.04-.09,.81,.09,.02,0-.12-.03-.31-.06-.62-.11-.92-.16-2.45-.45-4.88-.97-7.37-1.2s-4.96,.13-7.4,.53c-2.1,.34-4.19,.77-6.3,1.09-.36,.05-2,.41-.54,.09-.46,.1-.96,.12-1.43,.18-1.11,.13-2.23,.24-3.34,.34-4.3,.37-8.63,.49-12.95,.36-2.16-.07-4.32-.2-6.47-.39-1.04-.09-2.07-.2-3.1-.32-.47-.06-.96-.09-1.43-.18,.05,0,1.11,.16,.41,.05-.32-.05-.63-.09-.95-.14-4.29-.65-8.49-1.37-12.56,.66-2.36,1.18-3.77,3.25-4.68,5.65-.5,1.32-.15,3.46,.6,4.62,.91,1.4,2.06,2.12,3.59,2.76-.5-.21-1.06-.47-.24-.07,.28,.14,.56,.28,.83,.43,.49,.27,.97,.56,1.43,.86,.24,.16,.51,.42,.76,.53-.24-.1-.95-.78-.33-.26,.47,.4,.94,.8,1.38,1.24,.39,.39,.77,.8,1.13,1.22,.33,.38,.49,.99-.13-.2,.11,.21,.29,.41,.43,.6,.35,.51,.67,1.04,.96,1.58,.12,.22,.22,.44,.34,.66,.62,1.17-.5-1.3-.01-.07,.6,1.5,1.31,2.74,2.76,3.59,1.29,.75,3.18,1.07,4.62,.6,2.82-.91,5.43-4.26,4.19-7.38h0Z"/>
    <path class="cls-1" d="M45.06,160.97c4.62,4.39,10.43,7.65,15.9,10.87s11.62,6.3,17.77,8.78c5.82,2.35,11.87,4.12,18.08,5.08,7.15,1.1,14.35,1.4,21.57,1.68s13.83,.65,20.75,.7,14.32-.65,21.44-1.75c6.73-1.04,13.42-2.33,20.12-3.54,6.32-1.14,12.8-1.99,18.95-3.87,7.55-2.3,13.93-6.44,18.67-12.77,1.17-1.56,2.2-3.2,2.73-5.11,.82-2.98-.15-6.29-2.45-8.34-1.59-1.41-3.51-2.09-5.43-2.92-1.81-.78-3.63-1.57-5.44-2.35l2.15,8.21c1.2-2.14,2.21-4.36,3.14-6.63,1.22-3,2.21-6.14,.57-9.25-1.38-2.62-3.77-3.76-6.43-4.7-2.03-.71-4.06-1.4-6.12-2.03-8.56-2.62-18.04-4.18-26.71-1.14l5.84,10.03c.61-.58,1.25-1.12,1.89-1.66,.38-.32,.39-.63-.22,.17,.21-.28,.74-.53,1.03-.73,1.27-.87,2.61-1.64,4-2.31,.35-.17,.77-.44,1.15-.53-1.22,.28-.65,.26-.27,.13,.77-.27,1.54-.54,2.31-.79,1.99-.64,3.86-1.46,5.26-3.06,3.95-4.47,2.06-10.93-2.57-14.03-2.85-1.9-6.7-2.55-9.95-3.48-6.87-1.97-13.74-3.97-20.62-5.9s-14.46-3.42-21.96-3.54c-6.7-.11-13.42,.39-20.1,.81s-13.82,1.09-20.66,2.23c-6.23,1.04-12.41,2.58-18.28,4.94-3.36,1.35-7.43,2.73-9.95,5.48-1.68,1.84-2.78,4.37-2.59,6.9,.23,3.16,1.87,5.44,4.49,7.11,.95,.61-.42-.38-.61-.62-.32-.34-.53-.74-.62-1.21,.16,.62,.15,.4-.03-.65v.33c-.03,.64,0,.44,.09-.61-.22,1.04,.73-1.14,.12-.18-.65,1.01,1.05-.96,.06-.06-.14,.14-.28,.27-.43,.4-.34,.29-.19,.18,.44-.34,.04,.2-1.82,1.07-2.06,1.2-3.12,1.6-6.08,3.34-8.89,5.46-5.92,4.46-11.18,9.61-16.13,15.11-2.1,2.33-2.47,6.22,0,8.49,2.29,2.1,6.24,2.49,8.49,0,3.97-4.41,8.12-8.68,12.71-12.44,.28-.23,.56-.45,.84-.68,1.11-.9-.75,.55-.02,.01,.57-.42,1.14-.85,1.73-1.27,1.21-.85,2.45-1.66,3.72-2.41,2.74-1.61,5.83-2.72,8.09-5.05,2.7-2.79,4.07-7.03,2.73-10.79-.46-1.31-1.08-2.44-2.07-3.44-.53-.53-1.15-.98-1.77-1.4,.04,.03-.67-.4-.67-.43l.6,.45c.77,.76,1.15,1.65,1.16,2.67-.03,1.43-.22,1.01-.06,.54l-.32,.78c-.6,.7-.69,.81-.25,.33,.83-.77-1.09,.55,0,0,1.26-.63,2.5-1.28,3.78-1.86,.99-.45-.05,0-.22,.08,.4-.18,.82-.34,1.23-.5,.82-.32,1.64-.63,2.48-.93,2.77-.98,5.6-1.79,8.45-2.47,3.02-.71,6.07-1.28,9.13-1.74,.29-.04,.59-.08,.88-.13,1.52-.23-1.36,.17,.17-.03,.74-.09,1.47-.19,2.21-.27,1.55-.18,3.11-.34,4.66-.48,6.24-.56,12.51-.9,18.77-1.19,3.21-.15,6.43-.25,9.64-.16,1.6,.04,3.21,.13,4.8,.29,.48,.05,.96,.1,1.44,.15,.31,.03,1.15,.03-.16-.02,.93,.04,1.93,.31,2.85,.49,6.52,1.27,12.89,3.33,19.28,5.16,3.65,1.04,7.29,2.09,10.94,3.13,1.79,.51,3.61,.98,5.39,1.56-.06-.02,.72,.26,.73,.25-.84-.37-.97-.42-.39-.14,.17,.09,.33,.18,.49,.29,.7,.37-1.04-.96-.22-.1-.55-.76-.67-.86-.35-.32l-.35-.77-.1-.91c-.01,.65,.02,.46,.09-.59,.2-.91,.66-1.58,1.38-2.02,.45-.31,.47-.33,.07-.07-1.01,.61,1.08-.34,.32-.13-.41,.11-.82,.26-1.23,.39-1.88,.62-3.74,1.39-5.51,2.27-3.27,1.61-6.28,3.83-8.94,6.33-1.86,1.75-2.34,5.1-.94,7.27s4.21,3.66,6.78,2.76c.85-.3,1.71-.56,2.58-.77,.43-.1,.87-.19,1.31-.27,.2-.04,1.47-.15,.52-.09s.56-.03,.75-.05c.37-.03,.74-.05,1.11-.06,.89-.03,1.78-.02,2.68,.03s1.86,.02,2.69,.24c-.71-.19-.81-.12-.02,0,.45,.07,.9,.15,1.35,.24,1.73,.33,3.45,.75,5.15,1.22s3.26,.96,4.87,1.49c.87,.29,1.74,.59,2.61,.89,.43,.15,.86,.31,1.29,.45,1.03,.34-1.09-.72-.13-.04-1.09-.77-1.2-1.39-1.4-2.75-.37-2.5-.2-1.44-.55-.46-.26,.75-.5,1.58-.87,2.29,.72-1.37,0-.05-.1,.2-.19,.4-.38,.81-.57,1.21-.39,.8-.81,1.58-1.25,2.36-1.44,2.57-.87,6.9,2.15,8.21s5.94,2.39,8.78,3.81c0,0,.54,.34,.6,.33-1.1,.17-1.71-3.12-1.71-3.25,0-.17,.36-1.44,.02-.46,.47-1.36,.22-.56-.01-.17-.32,.53-.68,1.03-1.03,1.54-.78,1.13,.64-.74,.06-.07-.31,.36-.61,.74-.94,1.1-.83,.92-1.72,1.78-2.67,2.58-.09,.08-1.18,.83-.36,.3s-.31,.2-.39,.26c-.57,.4-1.16,.77-1.76,1.12s-1.28,.71-1.93,1.03c-.33,.16-.66,.3-.99,.46-.83,.39,1.38-.5,.02-.02s-2.75,.97-4.17,1.37c-5.86,1.62-11.95,2.46-17.93,3.54-6.3,1.14-12.6,2.34-18.92,3.34-.72,.11-1.43,.22-2.15,.33-.4,.06-.8,.11-1.2,.17-1.14,.16-.04,.01,.16-.02-1.67,.26-3.36,.41-5.04,.56-3.16,.29-6.33,.42-9.51,.43-6.5,.02-13-.34-19.49-.59s-12.91-.38-19.33-1.12c-.32-.04-.65-.08-.97-.12-1.64-.19,1.29,.22-.34-.05-.64-.1-1.28-.2-1.93-.31-1.62-.28-3.23-.62-4.83-1.01-2.73-.66-5.42-1.48-8.07-2.42-1.54-.54-3.05-1.14-4.56-1.75-1.41-.57,1.19,.53-.2-.09-.41-.18-.82-.36-1.22-.54-.68-.3-1.35-.62-2.02-.93-3.02-1.43-5.99-3-8.89-4.66s-5.59-3.36-8.36-5.08c-1.31-.82-2.63-1.63-3.91-2.51-.29-.2-.57-.4-.85-.6-.17-.12-.34-.25-.51-.37-.35-.26-.22-.17,.38,.29-.03-.11-.53-.44-.66-.55-.45-.38-.88-.78-1.3-1.18-2.28-2.16-6.25-2.43-8.49,0s-2.43,6.18,0,8.49h0Z"/>
  </g>
</svg>